<?xml version="1.0" encoding="UTF-8"?>
<svg xmlns="http://www.w3.org/2000/svg" width="313" height="55" viewBox="0 0 313 55" role="img" aria-label="Candidate Flow logo">
  <title>Candidate Flow Logo</title>
  <rect x="0" y="0" width="313" height="55" fill="#FFFFFF"/>
  <path fill="#000000" fill-rule="evenodd" d="
M 11.00 13.00 L 8.00 16.00 L 8.00 17.00 L 7.00 18.00 L 7.00 19.00 L 6.00 20.00 L 6.00 25.00 L 7.00 26.00 L 7.00 28.00 L 9.00 30.00 L 9.00 31.00 L 10.00 31.00 L 11.00 32.00 L 12.00 32.00 L 13.00 33.00 L 22.00 33.00 L 23.00 32.00 L 24.00 32.00 L 26.00 30.00 L 26.00 29.00 L 24.00 27.00 L 22.00 27.00 L 21.00 28.00 L 20.00 28.00 L 19.00 29.00 L 16.00 29.00 L 15.00 28.00 L 14.00 28.00 L 12.00 26.00 L 12.00 25.00 L 11.00 24.00 L 11.00 21.00 L 12.00 20.00 L 12.00 19.00 L 13.00 18.00 L 14.00 18.00 L 15.00 17.00 L 17.00 17.00 L 18.00 16.00 L 19.00 17.00 L 20.00 17.00 L 22.00 19.00 L 23.00 19.00 L 26.00 16.00 L 23.00 13.00 L 21.00 13.00 L 20.00 12.00 L 14.00 12.00 L 13.00 13.00 Z
M 242.00 13.00 L 238.00 17.00 L 238.00 18.00 L 237.00 19.00 L 237.00 26.00 L 238.00 27.00 L 238.00 28.00 L 239.00 29.00 L 239.00 30.00 L 241.00 32.00 L 242.00 32.00 L 243.00 33.00 L 247.00 33.00 L 248.00 34.00 L 249.00 33.00 L 253.00 33.00 L 255.00 31.00 L 256.00 31.00 L 257.00 30.00 L 257.00 29.00 L 258.00 28.00 L 258.00 27.00 L 259.00 26.00 L 259.00 20.00 L 258.00 19.00 L 258.00 17.00 L 255.00 14.00 L 254.00 14.00 L 253.00 13.00 L 252.00 13.00 L 251.00 12.00 L 245.00 12.00 L 244.00 13.00 Z
M 297.00 12.00 L 296.00 13.00 L 295.00 13.00 L 293.00 15.00 L 293.00 16.00 L 292.00 17.00 L 292.00 21.00 L 293.00 22.00 L 293.00 23.00 L 295.00 25.00 L 296.00 25.00 L 297.00 26.00 L 302.00 26.00 L 303.00 25.00 L 304.00 25.00 L 305.00 24.00 L 305.00 23.00 L 306.00 22.00 L 306.00 16.00 L 305.00 15.00 L 305.00 14.00 L 304.00 13.00 L 303.00 13.00 L 302.00 12.00 Z
M 37.00 13.00 L 36.00 14.00 L 36.00 16.00 L 35.00 17.00 L 35.00 18.00 L 34.00 19.00 L 34.00 20.00 L 33.00 21.00 L 33.00 22.00 L 32.00 23.00 L 32.00 25.00 L 31.00 26.00 L 31.00 27.00 L 30.00 28.00 L 30.00 29.00 L 29.00 30.00 L 29.00 32.00 L 28.00 33.00 L 33.00 33.00 L 35.00 31.00 L 43.00 31.00 L 44.00 32.00 L 44.00 33.00 L 49.00 33.00 L 49.00 31.00 L 48.00 30.00 L 48.00 29.00 L 47.00 28.00 L 47.00 26.00 L 46.00 25.00 L 46.00 24.00 L 45.00 23.00 L 45.00 22.00 L 44.00 21.00 L 44.00 20.00 L 43.00 19.00 L 43.00 17.00 L 42.00 16.00 L 42.00 15.00 L 41.00 14.00 L 41.00 13.00 Z
M 53.00 13.00 L 53.00 33.00 L 58.00 33.00 L 58.00 25.00 L 59.00 24.00 L 68.00 33.00 L 71.00 33.00 L 71.00 13.00 L 66.00 13.00 L 66.00 21.00 L 65.00 22.00 L 58.00 15.00 L 58.00 14.00 L 57.00 13.00 Z
M 76.00 13.00 L 76.00 32.00 L 77.00 33.00 L 88.00 33.00 L 89.00 32.00 L 90.00 32.00 L 91.00 31.00 L 92.00 31.00 L 94.00 29.00 L 94.00 28.00 L 95.00 27.00 L 95.00 19.00 L 94.00 18.00 L 94.00 17.00 L 91.00 14.00 L 90.00 14.00 L 89.00 13.00 Z
M 100.00 13.00 L 100.00 33.00 L 105.00 33.00 L 105.00 13.00 Z
M 111.00 13.00 L 111.00 33.00 L 122.00 33.00 L 123.00 32.00 L 124.00 32.00 L 125.00 31.00 L 126.00 31.00 L 128.00 29.00 L 128.00 28.00 L 129.00 27.00 L 129.00 19.00 L 128.00 18.00 L 128.00 17.00 L 125.00 14.00 L 124.00 14.00 L 123.00 13.00 Z
M 139.00 13.00 L 139.00 14.00 L 138.00 15.00 L 138.00 16.00 L 137.00 17.00 L 137.00 19.00 L 136.00 20.00 L 136.00 21.00 L 135.00 22.00 L 135.00 23.00 L 134.00 24.00 L 134.00 26.00 L 133.00 27.00 L 133.00 28.00 L 132.00 29.00 L 132.00 30.00 L 131.00 31.00 L 131.00 32.00 L 130.00 33.00 L 136.00 33.00 L 136.00 32.00 L 137.00 31.00 L 145.00 31.00 L 147.00 33.00 L 152.00 33.00 L 152.00 32.00 L 151.00 31.00 L 151.00 30.00 L 150.00 29.00 L 150.00 28.00 L 149.00 27.00 L 149.00 25.00 L 148.00 24.00 L 148.00 23.00 L 147.00 22.00 L 147.00 21.00 L 146.00 20.00 L 146.00 19.00 L 145.00 18.00 L 145.00 16.00 L 144.00 15.00 L 144.00 14.00 L 143.00 13.00 Z
M 150.00 13.00 L 150.00 14.00 L 151.00 15.00 L 151.00 16.00 L 152.00 17.00 L 156.00 17.00 L 157.00 18.00 L 157.00 32.00 L 158.00 33.00 L 162.00 33.00 L 162.00 18.00 L 163.00 17.00 L 168.00 17.00 L 168.00 13.00 Z
M 172.00 13.00 L 172.00 33.00 L 187.00 33.00 L 187.00 29.00 L 178.00 29.00 L 177.00 28.00 L 177.00 26.00 L 178.00 25.00 L 185.00 25.00 L 186.00 24.00 L 186.00 21.00 L 178.00 21.00 L 177.00 20.00 L 177.00 18.00 L 178.00 17.00 L 187.00 17.00 L 187.00 13.00 Z
M 216.00 13.00 L 201.00 13.00 L 201.00 32.00 L 202.00 33.00 L 206.00 33.00 L 206.00 27.00 L 207.00 26.00 L 215.00 26.00 L 215.00 22.00 L 208.00 22.00 L 206.00 20.00 L 206.00 18.00 L 207.00 17.00 L 216.00 17.00 Z
M 221.00 13.00 L 221.00 33.00 L 234.00 33.00 L 234.00 29.00 L 227.00 29.00 L 226.00 28.00 L 226.00 13.00 Z
M 261.00 13.00 L 261.00 14.00 L 263.00 17.00 L 263.00 19.00 L 264.00 20.00 L 264.00 22.00 L 266.00 25.00 L 266.00 27.00 L 267.00 28.00 L 267.00 30.00 L 269.00 33.00 L 271.00 33.00 L 272.00 32.00 L 272.00 31.00 L 273.00 30.00 L 273.00 28.00 L 275.00 25.00 L 276.00 25.00 L 277.00 26.00 L 277.00 28.00 L 279.00 31.00 L 279.00 33.00 L 282.00 33.00 L 283.00 32.00 L 283.00 30.00 L 284.00 29.00 L 284.00 27.00 L 286.00 24.00 L 286.00 22.00 L 287.00 21.00 L 287.00 19.00 L 288.00 18.00 L 288.00 17.00 L 289.00 16.00 L 289.00 14.00 L 290.00 13.00 L 284.00 13.00 L 284.00 14.00 L 283.00 15.00 L 283.00 17.00 L 282.00 18.00 L 282.00 20.00 L 281.00 21.00 L 280.00 21.00 L 279.00 20.00 L 279.00 18.00 L 278.00 17.00 L 278.00 15.00 L 277.00 14.00 L 277.00 13.00 L 274.00 13.00 L 273.00 14.00 L 273.00 16.00 L 272.00 17.00 L 272.00 19.00 L 270.00 22.00 L 269.00 21.00 L 269.00 19.00 L 268.00 18.00 L 268.00 16.00 L 267.00 15.00 L 267.00 13.00 Z
M 299.00 13.00 L 301.00 13.00 L 304.00 16.00 L 304.00 17.00 L 305.00 18.00 L 305.00 21.00 L 302.00 24.00 L 301.00 24.00 L 300.00 25.00 L 298.00 25.00 L 297.00 24.00 L 296.00 24.00 L 294.00 22.00 L 294.00 16.00 L 296.00 14.00 L 298.00 14.00 Z
M 248.00 16.00 L 249.00 17.00 L 251.00 17.00 L 253.00 19.00 L 253.00 20.00 L 254.00 21.00 L 254.00 25.00 L 250.00 29.00 L 246.00 29.00 L 242.00 25.00 L 242.00 21.00 L 243.00 20.00 L 243.00 19.00 L 245.00 17.00 L 247.00 17.00 Z
M 297.00 16.00 L 297.00 22.00 L 298.00 21.00 L 298.00 20.00 L 299.00 19.00 L 300.00 20.00 L 300.00 21.00 L 301.00 22.00 L 301.00 19.00 L 302.00 18.00 L 302.00 17.00 L 301.00 16.00 Z
M 298.00 17.00 L 299.00 16.00 L 300.00 16.00 L 301.00 17.00 L 301.00 18.00 L 300.00 19.00 L 299.00 19.00 L 298.00 18.00 Z
M 82.00 17.00 L 86.00 17.00 L 87.00 18.00 L 88.00 18.00 L 90.00 20.00 L 90.00 25.00 L 87.00 28.00 L 85.00 28.00 L 84.00 29.00 L 82.00 29.00 L 81.00 28.00 L 81.00 18.00 Z
M 116.00 17.00 L 120.00 17.00 L 121.00 18.00 L 122.00 18.00 L 124.00 20.00 L 124.00 25.00 L 121.00 28.00 L 119.00 28.00 L 118.00 29.00 L 116.00 29.00 L 115.00 28.00 L 115.00 18.00 Z
M 39.00 21.00 L 40.00 22.00 L 40.00 23.00 L 41.00 24.00 L 41.00 26.00 L 40.00 27.00 L 37.00 27.00 L 36.00 26.00 L 37.00 25.00 L 37.00 24.00 L 38.00 23.00 L 38.00 22.00 Z
M 141.00 21.00 L 143.00 23.00 L 143.00 24.00 L 144.00 25.00 L 144.00 26.00 L 143.00 27.00 L 140.00 27.00 L 139.00 26.00 L 139.00 24.00 L 140.00 23.00 L 140.00 22.00 Z
M 7.00 39.00 L 7.00 44.00 L 289.00 44.00 L 285.00 39.00 Z
  "/>
</svg>
